<svg xmlns="http://www.w3.org/2000/svg" xmlns:xlink="http://www.w3.org/1999/xlink" width="356" height="231" viewBox="0 0 356 231">
  <defs>
    <linearGradient id="linear-gradient" x1="0.5" x2="0.5" y2="1" gradientUnits="objectBoundingBox">
      <stop offset="0" stop-color="#fff"/>
      <stop offset="1" stop-color="#d7e8c0"/>
    </linearGradient>
    <filter id="Rectangle_35" x="0" y="0" width="356" height="231" filterUnits="userSpaceOnUse">
      <feOffset dx="3" dy="3" input="SourceAlpha"/>
      <feGaussianBlur stdDeviation="5" result="blur"/>
      <feFlood flood-opacity="0.161"/>
      <feComposite operator="in" in2="blur"/>
      <feComposite in="SourceGraphic"/>
    </filter>
  </defs>
  <g id="Group_1" data-name="Group 1" transform="translate(-9 -217.248)">
    <g transform="matrix(1, 0, 0, 1, 9, 217.25)" filter="url(#Rectangle_35)">
      <rect id="Rectangle_35-2" data-name="Rectangle 35" width="326" height="201" rx="13" transform="translate(12 12)" fill="url(#linear-gradient)"/>
    </g>
    <path id="Path_14" data-name="Path 14" d="M14.5,0A14.756,14.756,0,0,1,29,15a15.5,15.5,0,0,1-2.932,9.046A14.192,14.192,0,0,1,14.5,30,14.756,14.756,0,0,1,0,15,14.756,14.756,0,0,1,14.5,0Z" transform="translate(276 393.248)" fill="#cc2323"/>
    <path id="Path_15" data-name="Path 15" d="M14.5,0A14.756,14.756,0,0,1,29,15a15.5,15.5,0,0,1-2.932,9.046A14.192,14.192,0,0,1,14.5,30,14.756,14.756,0,0,1,0,15,14.756,14.756,0,0,1,14.5,0Z" transform="translate(298 393.248)" fill="#ccb523"/>
    <path id="Icon_metro-qrcode" data-name="Icon metro-qrcode" d="M7.905,2.866H3.638v3.75H7.905Zm1.067-.938V7.553h-6.4V1.928ZM4.7,3.8H6.839V5.678H4.7Zm13.87-.938H14.307v3.75h4.268V2.866Zm1.067-.938V7.553h-6.4V1.928h6.4ZM15.374,3.8h2.134V5.678H15.374ZM7.905,12.241H3.638v3.75H7.905ZM8.972,11.3v5.625h-6.4V11.3ZM4.7,13.178H6.839v1.875H4.7Zm5.335-11.25h1.067v.938H10.039Zm1.067.938h1.067V3.8H11.106ZM10.039,3.8h1.067v.938H10.039Zm1.067.938h1.067v.938H11.106Zm-1.067.938h1.067v.938H10.039Zm1.067.938h1.067v.938H11.106Zm-1.067.938h1.067v.938H10.039Zm0,1.875h1.067v.937H10.039Zm1.067.937h1.067V11.3H11.106Zm-1.067.938h1.067v.938H10.039Zm1.067.938h1.067v.938H11.106Zm-1.067.938h1.067v.938H10.039Zm1.067.938h1.067v.938H11.106Zm-1.067.938h1.067v.938H10.039Zm1.067.938h1.067v.938H11.106Zm7.469-6.563h1.067v.938H18.575Zm-14.937,0H4.7v.938H3.638ZM4.7,8.491H5.772v.938H4.7Zm-2.134,0H3.638v.938H2.571Zm4.268,0H7.905v.938H6.839Zm1.067.938H8.972v.938H7.905Zm1.067-.938h1.067v.938H8.972Zm3.2.938H13.24v.938H12.173Zm1.067-.938h1.067v.938H13.24Zm1.067.938h1.067v.938H14.307Zm1.067-.938h1.067v.938H15.374Zm1.067.938h1.067v.938H16.441Zm1.067-.938h1.067v.938H17.508ZM18.575,11.3h1.067v.938H18.575Zm-6.4,0H13.24v.938H12.173Zm1.067-.938h1.067V11.3H13.24Zm1.067.938h1.067v.938H14.307Zm2.134,0h1.067v.938H16.441Zm1.067-.938h1.067V11.3H17.508Zm1.067,2.813h1.067v.938H18.575Zm-6.4,0H13.24v.938H12.173Zm1.067-.938h1.067v.938H13.24Zm2.134,0h1.067v.938H15.374Zm1.067.938h1.067v.938H16.441Zm1.067-.938h1.067v.938H17.508Zm1.067,2.813h1.067v.938H18.575Zm-5.335-.938h1.067v.938H13.24Zm1.067.938h1.067v.938H14.307Zm1.067-.938h1.067v.938H15.374Zm1.067.938h1.067v.938H16.441Zm-3.2.938h1.067v.938H13.24Zm2.134,0h1.067v.938H15.374Zm2.134,0h1.067v.938H17.508Z" transform="translate(52.429 391.32)" fill="#ccb523"/>
    <rect id="Rectangle_38" data-name="Rectangle 38" width="37" height="29" rx="3" transform="translate(43 282)" fill="#989c0c" opacity="0.71"/>
    <text id="Traffix" transform="translate(278 275)" fill="#221aaf" font-size="14" font-family="SegoeUI, Segoe UI" opacity="0.6"><tspan x="0" y="0">Traffix</tspan></text>
    <path id="Icon_awesome-random" data-name="Icon awesome-random" d="M11.893,9.3a.792.792,0,0,1,0,.97L10,12.564c-.355.43-.967.132-.966-.482l0-1.143-1.388,0a.261.261,0,0,1-.207-.108L5.778,8.681,7.041,7.044,8.283,8.656l.755,0,0-1.143c0-.613.615-.917.968-.488L11.893,9.3ZM.267,4.11,2.25,4.1,3.492,5.716,4.755,4.078,3.094,1.923a.261.261,0,0,0-.207-.108L.272,1.824a.32.32,0,0,0-.284.344l0,1.6A.315.315,0,0,0,.267,4.11Zm8.782-.03,0,1.143c0,.613.611.912.966.482l1.894-2.293a.792.792,0,0,0,0-.97L10.025.163c-.354-.428-.967-.124-.968.488l0,1.143-1.388,0a.265.265,0,0,0-.207.11L2.24,8.677.257,8.683a.32.32,0,0,0-.284.344l0,1.6a.315.315,0,0,0,.283.342l2.615-.009a.265.265,0,0,0,.207-.11L8.293,4.083Z" transform="translate(275.963 264.369) rotate(89)" fill="#221aaf" opacity="0.6"/>
  </g>
</svg>
